<svg xmlns="http://www.w3.org/2000/svg" viewBox="0 0 200 140" width="200" height="140">
  
  <rect width="200" height="140" fill="#F4EAD5"></rect>
  
  <g opacity="0.08">
    <path d="M0 20 H200 M0 40 H200 M0 60 H200 M0 80 H200 M0 100 H200 M0 120 H200" stroke="#0E1A2B"></path>
    <path d="M20 0 V140 M40 0 V140 M60 0 V140 M80 0 V140 M100 0 V140 M120 0 V140 M140 0 V140 M160 0 V140 M180 0 V140" stroke="#0E1A2B"></path>
  </g>
  
  <g transform="translate(40, 40)">
    <rect x="0" y="20" width="120" height="60" rx="4" fill="#F26B1F" stroke="#0E1A2B" stroke-width="2.5"></rect>
    <rect x="0" y="38" width="120" height="2" fill="#0E1A2B"></rect>
    <rect x="40" y="0" width="40" height="22" rx="3" fill="none" stroke="#0E1A2B" stroke-width="2.5"></rect>
    <rect x="54" y="48" width="12" height="14" rx="1.5" fill="#0E1A2B"></rect>
    
    <line x1="48" y1="6" x2="72" y2="6" stroke="#F4EAD5" stroke-width="1.5"></line>
  </g>
  
  <g transform="translate(125, 25) rotate(28)" stroke="#0E1A2B" stroke-width="2.5" fill="none" stroke-linecap="round" stroke-linejoin="round">
    <path d="M0 6 L20 6 M14 0 L20 6 L14 12"></path>
  </g>
</svg>