<svg xmlns="http://www.w3.org/2000/svg" viewBox="0 0 200 140" width="200" height="140">
  <rect width="200" height="140" fill="#F4EAD5"></rect>
  <g opacity="0.08">
    <path d="M0 20 H200 M0 40 H200 M0 60 H200 M0 80 H200 M0 100 H200 M0 120 H200" stroke="#0E1A2B"></path>
    <path d="M20 0 V140 M40 0 V140 M60 0 V140 M80 0 V140 M100 0 V140 M120 0 V140 M140 0 V140 M160 0 V140 M180 0 V140" stroke="#0E1A2B"></path>
  </g>
  
  <g transform="translate(50, 30)" stroke="#0E1A2B" stroke-width="2.5" stroke-linejoin="round" stroke-linecap="round" fill="none">
    <path d="M0 50 L0 25 L50 0 L100 25 L100 50 Z" fill="#F4EAD5"></path>
    <path d="M0 50 L100 50" stroke-width="2.5"></path>
    <rect x="20" y="32" width="20" height="18" fill="#F26B1F" stroke="#0E1A2B"></rect>
    <rect x="60" y="20" width="22" height="16" fill="none"></rect>
    <line x1="71" y1="20" x2="71" y2="36"></line>
    <line x1="60" y1="28" x2="82" y2="28"></line>
  </g>
  
  <g transform="translate(140, 18)">
    <path d="M14 0 C6 0 0 6 0 14 C0 24 14 38 14 38 C14 38 28 24 28 14 C28 6 22 0 14 0 Z" fill="#F26B1F" stroke="#0E1A2B" stroke-width="2.5"></path>
    <circle cx="14" cy="14" r="5" fill="#F4EAD5" stroke="#0E1A2B" stroke-width="2"></circle>
  </g>
</svg>